<svg xmlns="http://www.w3.org/2000/svg" data-name="Layer 1" viewBox="0 0 100 125" x="0px" y="0px"><path d="m50.54,43.42l1.76,3.57c.09.18.26.3.45.33l3.94.57c.49.07.69.67.33,1.02l-2.85,2.78c-.14.14-.21.34-.17.53l.67,3.92c.08.49-.43.86-.87.63l-3.52-1.85c-.17-.09-.38-.09-.56,0l-3.52,1.85c-.44.23-.95-.14-.87-.63l.67-3.92c.03-.19-.03-.39-.17-.53l-2.85-2.78c-.36-.35-.16-.95.33-1.02l3.94-.57c.19-.03.36-.15.45-.33l1.76-3.57c.22-.44.85-.44,1.07,0Z"/><text x="0" y="115" fill="#000000" font-size="5px" font-weight="bold" font-family="'Helvetica Neue', Helvetica, Arial-Unicode, Arial, Sans-serif">Created by Tyler Gobberdiel</text><text x="0" y="120" fill="#000000" font-size="5px" font-weight="bold" font-family="'Helvetica Neue', Helvetica, Arial-Unicode, Arial, Sans-serif">from the Noun Project</text></svg>