<svg xmlns="http://www.w3.org/2000/svg" data-name="Layer 1" viewBox="0 0 100 125" x="0px" y="0px"><path d="m45.92,57.59c-.28,0-.55-.09-.79-.26-.42-.3-.62-.81-.54-1.32l.66-3.84-2.79-2.72c-.37-.36-.5-.89-.34-1.38.16-.49.58-.84,1.09-.92l3.86-.56,1.73-3.5c.23-.46.69-.75,1.21-.75s.98.29,1.21.75h0s1.73,3.5,1.73,3.5l3.86.56c.51.07.93.43,1.09.92.16.49.03,1.02-.34,1.38l-2.79,2.72.66,3.84c.09.51-.12,1.02-.54,1.32-.42.3-.96.34-1.42.1l-3.45-1.81-3.45,1.81c-.2.1-.41.16-.63.16Zm-2.19-9l2.63,2.56c.32.31.46.75.39,1.19l-.62,3.62,3.25-1.71c.39-.21.86-.21,1.26,0l3.25,1.71-.62-3.62c-.08-.44.07-.88.39-1.19l2.63-2.56-3.63-.53c-.44-.06-.82-.34-1.02-.74l-1.62-3.29-1.62,3.29c-.2.4-.58.67-1.01.74l-3.63.53Zm9.24-1.93h.01-.01Z"/><text x="0" y="115" fill="#000000" font-size="5px" font-weight="bold" font-family="'Helvetica Neue', Helvetica, Arial-Unicode, Arial, Sans-serif">Created by Tyler Gobberdiel</text><text x="0" y="120" fill="#000000" font-size="5px" font-weight="bold" font-family="'Helvetica Neue', Helvetica, Arial-Unicode, Arial, Sans-serif">from the Noun Project</text></svg>